<?xml version="1.0" encoding="UTF-8" standalone="no"?>
<!-- Created with Inkscape (http://www.inkscape.org/) -->

<svg
   width=""
   height=""
   viewBox="0 0 200 297"
   xmlns="http://www.w3.org/2000/svg"
   xml:space="preserve"
>
 <path
       style="fill:#000000;stroke-width:0.264583"
       d="m 86.664118,143.10497 c -1.987917,-0.59858 -3.377152,-2.07425 -3.377152,-3.58728 v -0.70201 l 0.908656,0.79781 c 1.778405,1.56146 2.873613,1.45026 5.962549,-0.6054 2.622085,-1.74498 3.027762,-1.88764 3.84501,-1.35216 0.718748,0.47094 1.15471,2.11285 0.73791,2.77911 -0.314479,0.5027 -2.974073,2.04982 -4.409787,2.56524 -1.123013,0.40316 -2.541444,0.44365 -3.667186,0.10469 z m 14.879102,0.0205 c -0.36381,-0.12591 -1.49252,-0.6897 -2.508254,-1.25285 -2.110608,-1.17019 -2.556873,-1.89738 -1.995742,-3.25207 0.711629,-1.71803 1.708396,-1.54065 5.808726,1.03367 0.96245,0.60427 2.03127,1.06833 2.46053,1.06833 0.95949,0 2.16606,-0.61659 2.70097,-1.38027 l 0.41293,-0.58955 v 0.73346 c 0,1.94911 -2.0497,3.59366 -4.69625,3.76799 -0.8368,0.0551 -1.81911,-0.003 -2.18291,-0.12871 z m -14.422886,-10.873 c -0.922298,-1.01913 -0.33863,-3.01855 0.929132,-3.18285 1.276345,-0.16541 2.38125,0.60098 2.38125,1.65168 0,0.45273 -0.07056,0.51153 -0.3175,0.26458 -0.438616,-0.43861 -1.403112,-0.39784 -1.796314,0.0759 -0.187278,0.22566 -0.25536,0.67699 -0.15965,1.05834 0.208076,0.82904 -0.342778,0.89933 -1.036918,0.13231 z m 15.235836,-0.16456 c -0.69401,-0.88228 -0.69696,-1.68942 -0.009,-2.42797 1.1448,-1.2288 3.43921,-0.41942 3.42123,1.20688 -0.007,0.62205 -0.0472,0.66043 -0.27773,0.26459 -0.15978,-0.27433 -0.58574,-0.46303 -1.04525,-0.46303 -0.60642,0 -0.81174,0.14413 -0.94143,0.66087 -0.0912,0.36348 -0.0972,0.83973 -0.0133,1.05833 0.25473,0.66384 -0.54228,0.45332 -1.13458,-0.29967 z m -20.198723,-9.29088 c 0.111913,-0.40018 0.192725,-2.21588 0.17958,-4.03489 -0.02698,-3.73467 -0.589923,-6.279 -2.451149,-11.07854 -0.571564,-1.47389 -0.960967,-2.6798 -0.86534,-2.6798 0.290978,0 1.900048,2.60544 2.703749,4.37796 0.416613,0.91883 1.080682,2.83974 1.475711,4.26871 0.395028,1.42897 0.747241,2.64018 0.782695,2.69159 0.03545,0.0514 0.994746,-0.21404 2.131764,-0.58987 2.892729,-0.95618 5.227984,-1.40325 9.211051,-1.7634 3.948649,-0.35705 7.244222,-0.18106 10.405782,0.55566 1.21204,0.28243 2.29627,0.51352 2.40941,0.51352 0.11313,0 0.2808,-0.80811 0.3726,-1.79579 0.16436,-1.76851 1.03404,-4.74436 1.84458,-6.31178 0.77822,-1.50491 2.47769,-3.40127 3.61596,-4.0349 l 1.13731,-0.63308 -1.08562,1.43789 c -2.54485,3.37063 -3.83814,8.61495 -3.72557,15.10723 0.0322,1.85499 -0.0221,3.38725 -0.12071,3.40502 -0.0986,0.0178 -1.15925,-0.13072 -2.35709,-0.32999 -3.10805,-0.51705 -12.846133,-0.44115 -17.246839,0.13442 -1.885,0.24654 -4.4988,0.68211 -5.808445,0.96795 -2.97616,0.64955 -2.851991,0.65945 -2.609429,-0.20791 z m 8.273269,-2.07978 c 5.640128,-0.73675 13.437194,-0.99873 16.744464,-0.56262 l 1.53092,0.20188 -0.1533,-1.3925 c -0.0843,-0.76588 -0.21332,-1.88744 -0.28668,-2.49237 l -0.13336,-1.09987 -2.81164,-0.19165 c -6.164697,-0.42018 -14.648019,0.11262 -19.851341,1.24678 l -1.389063,0.30277 v 2.48927 c 0,2.24815 0.04485,2.47559 0.463021,2.34804 0.254661,-0.0777 2.903802,-0.46005 5.886979,-0.84973 z m 23.415624,-8.43353 c -0.7276,-0.20757 -1.41221,-0.38265 -1.52135,-0.38908 -0.10914,-0.006 -0.19844,-0.13073 -0.19844,-0.27625 0,-0.14553 0.36711,-0.26459 0.81581,-0.26459 1.30447,0 5.03888,-1.03826 6.23391,-1.73319 2.36302,-1.37412 3.41125,-3.50502 3.21345,-6.53246 -0.17164,-2.62707 -1.12022,-4.547862 -3.38413,-6.852544 -4.3818,-4.460727 -10.47673,-4.931252 -13.35428,-1.030945 -0.36768,0.498363 -0.66851,0.771671 -0.66851,0.607352 0,-0.676775 0.60846,-1.809694 1.6223,-3.020612 l 1.07614,-1.28533 -0.85028,-1.325044 c -1.51671,-2.363593 -4.13848,-4.284042 -6.842555,-5.012172 -1.794933,-0.483325 -5.548095,-0.361256 -8.031408,0.261215 -3.754504,0.941109 -10.851809,4.881024 -11.915869,6.614835 -0.177476,0.289185 -0.0044,0.792961 0.614642,1.788742 0.473935,0.7624 0.801849,1.446031 0.728699,1.519179 -0.07315,0.07315 -0.46976,-0.399775 -0.881359,-1.050941 -0.978493,-1.54802 -2.306093,-2.116157 -4.35589,-1.864073 -3.036467,0.373425 -5.482861,2.131664 -6.65598,4.783692 -0.601742,1.36034 -0.699477,3.830346 -0.21099,5.332296 0.479073,1.473 1.781359,3.15777 3.132823,4.05294 1.29859,0.86015 4.13235,1.83665 5.329898,1.83665 1.297521,0 1.092882,0.44991 -0.278514,0.61233 -2.883805,0.34155 -5.870605,-0.6526 -7.551939,-2.51364 -1.540269,-1.70489 -2.057662,-3.14456 -2.184864,-6.07949 -0.09984,-2.303527 -0.04491,-2.700801 0.5544,-4.009865 1.306703,-2.854215 4.030179,-4.622315 7.518451,-4.881033 0.902915,-0.06697 2.006224,0.0053 2.451797,0.160655 0.768384,0.26786 0.84281,0.23065 1.444233,-0.722066 1.076646,-1.705519 3.544243,-3.665956 6.364317,-5.056276 3.97314,-1.95879 6.168118,-2.491107 10.322989,-2.503492 3.686129,-0.01098 5.186839,0.315577 7.441719,1.619356 1.40031,0.809663 3.58018,3.113942 4.3227,4.569396 l 0.57806,1.133093 1.38916,-0.173564 c 4.45041,-0.556042 8.83489,1.791613 11.81764,6.327702 3.63759,5.531974 2.39537,12.191054 -2.73589,14.666084 -2.03277,0.98049 -3.61862,1.18532 -5.35089,0.69114 z M 89.648952,108.1544 c -2.320888,-0.45496 -4.07447,-1.58031 -6.361986,-4.08279 -1.019696,-1.11552 -0.945218,-1.07314 1.719792,0.97833 0.582083,0.44808 1.713177,1.12432 2.513541,1.50277 1.276176,0.60342 1.79768,0.68881 4.238898,0.69408 2.602664,0.006 2.895449,-0.049 4.502295,-0.84007 2.063345,-1.01578 3.887408,-2.70232 5.245188,-4.84975 l 1.00197,-1.584669 0.86005,1.197599 c 1.26835,1.76614 2.58045,2.34503 4.90647,2.1647 1.02685,-0.0796 2.16466,-0.22236 2.52846,-0.31721 l 0.66146,-0.17246 -0.72804,0.67026 c -0.75176,0.6921 -2.21663,1.22194 -3.373,1.22 -1.02469,-0.002 -3.25186,-1.15167 -4.03649,-2.08414 l -0.70757,-0.84091 -0.69539,1.10157 c -1.7229,2.72924 -4.818481,4.75003 -8.054301,5.25782 -1.968418,0.30891 -2.579473,0.30671 -4.221347,-0.0151 z"
       id="path183" /></svg>
